<?xml version="1.0" encoding="utf-8"?>
<!-- Generator: Adobe Illustrator 18.1.1, SVG Export Plug-In . SVG Version: 6.00 Build 0)  -->
<!DOCTYPE svg PUBLIC "-//W3C//DTD SVG 1.1//EN" "http://www.w3.org/Graphics/SVG/1.1/DTD/svg11.dtd">
<svg version="1.1" id="Layer_1" xmlns="http://www.w3.org/2000/svg" xmlns:xlink="http://www.w3.org/1999/xlink" x="0px" y="0px"
	 viewBox="0 0 688.8 423">
    <path fill="#C2C1C2" d="M619.1,423c-2.5,0-5.1-0.2-8.2-0.6c-9.5-1.2-18.8-4-26.7-6.7c-9.5-3.2-17-6.4-23.4-10
        c-10-5.5-19-12.5-27.3-19.2c-10.2-8.2-18-15.5-24.6-22.8c-8.3-9.1-15.4-19.3-22.3-29.2c-1.3-1.9-2.6-3.7-3.9-5.6
        c-3-4.2-5.7-8.6-8.3-12.8c-3.4-5.4-6.9-11-10.8-16.1l-1.1-1.4c-4.9-6.3-9.9-12.9-16-17.7c-4.7-3.8-10.2-6.4-16-9.2
        c-1.4-0.7-2.8-1.3-4.2-2c-7.1-3.5-14.7-7.2-22.5-9.9c-13.5-4.7-26.6-8.2-39-10.3l-0.2,0c-4-0.7-8.1-1.4-12-1.4c-1,0-2,0-2.9,0.1
        c-4.9,0.5-9.8,2.4-14.4,4.2c-5,2.1-9.7,4.8-14.7,7.7c-2.9,1.7-5.9,3.4-8.9,5c-3,1.6-6.1,3.2-9.1,4.8c-8,4.3-16.3,8.8-25,12.3
        c-5.5,2.2-11.3,3.8-16.9,5.3l-1.4,0.4c-5.4,1.5-11,2.7-16.4,3.9l-2.5,0.5c-5,1.1-10.7,2.4-16.7,3.8c-18.8,4.3-38.3,8.8-44.9,8.8
        c-3.3,0-7.2-2.7-8.9-5.9c-1-2.1-0.7-4.1-0.4-5.4c0.1-0.3,0.1-0.7,0.1-0.9c0.1-1.3,0.3-2.5,0.5-3.7c0.3-1.6,0.5-3.1,0.3-4.1
        c-0.2-0.7-0.6-1.3-1.1-1.7c-0.1-0.1-0.5-0.2-0.8-0.2l-0.1,0c-1,0.1-2.3,0.7-3.8,1.9c-4.8,3.5-9.2,7-13.5,10.3
        c-6.4,5-12.5,9.7-19.2,14.4c-28.9,20.4-60.2,41.1-101.6,67c-1.4,0.9-2.8,1.8-4.2,2.9c-3.7,2.6-7.5,5.3-12.1,6.7l-0.2,0.1
        c-1.5,0.5-3.3,1-5.2,1c-1.4,0-2.7-0.3-3.9-0.9c-3.1-1.6-4.4-5.1-4.6-7.5c-0.4-4.9,2.2-9.7,4.1-13.3c0.4-0.8,0.8-1.5,1-2
        c2.8-6.1,5.4-12,8-17.6c5.7-12.8,11-24.8,17.8-37.1c4.5-8.1,9.8-17.4,16.4-25.7c6.2-7.7,13.4-14.5,20.4-21
        c3.6-3.3,7.2-6.8,10.7-10.2c8.8-8.9,18.3-18.5,27.8-28.2c2.1-2.2,4.3-4.3,6.4-6.3c4.5-4.3,8.8-8.4,12.4-13.1
        c1.8-2.4,3.3-5.3,4.8-8.3c1.5-3,3-6,5.1-8.9c3-4.2,6.3-8.6,10.6-11.9c5.3-4.1,11.5-6.7,16.3-8.5c3.7-1.4,7.5-2,11.2-2.6
        c3.7-0.6,7.2-1.2,10.4-2.5c4.1-1.7,7.8-4.2,11.6-7c0.8-0.5,1.5-1.1,2.3-1.6c5.2-3.6,10.3-7.6,15.2-11.5c2.8-2.3,5.8-4.6,8.7-6.8
        l5-3.8c6.6-5,13.4-10.2,20.3-15.2c7-5.1,13.3-9.6,20-13.9c3.4-2.2,6.5-4.2,9.9-6c4.6-2.4,9.8-4.8,15.8-7.2
        c8.1-3.2,16.4-5.9,24.4-8.5c5.9-1.9,12-3.9,17.9-6c38.6-14.1,97-37,131.8-50.7c13-5.1,22.4-8.8,26.3-10.3c3.1-1.2,6.2-2.4,9.2-3.7
        c8-3.3,16.3-6.7,25-8.5c2-0.4,4-0.8,6-0.8c1.1,0,2.1,0.1,3.1,0.3c4.6,1,8.4,3.7,10.8,5.6c2.1,1.7,3.6,3.7,5,5.4
        c0.8,1,1.5,1.9,2.2,2.7c0.4,0.4,0.7,0.8,1,1.2c0.6,0.8,1.2,1.4,1.7,1.8c1.3,0.8,2.8,1.4,4.7,1.7c1.2,0.2,2.6,0.1,4.4-0.3
        c3.5-0.8,6.9-2.4,10.5-4.2c2.5-1.2,5-2.4,7.7-3.4c0.7-0.3,1.4-0.5,2.2-0.8c3.1-1.2,6.4-2.4,9.9-3.1c2.3-0.4,4.6-0.8,6.9-0.8
        c1.4,0,2.7,0.1,4,0.4c4.3,1,8.1,3,10.7,5.7c13.3,14,27.6,30.7,41.4,46.8c2.8,3.3,5.6,6.5,8.4,9.8c1.1,1.3,2.2,2.6,3.4,3.9
        c3.4,3.9,6.9,7.9,10.2,12.2c0.3,0.4,0.6,0.8,1,1.2c1.4,1.8,3,3.9,4.1,6.3c1.4,3.2,2.9,7.5,2.5,11.9c-0.3,3.1-1.6,6.1-4,9.4
        c-1.7,2.3-3.9,4.3-6.5,5.7c-2.4,1.3-5.1,2.2-8.3,2.6c-2.8,0.4-5.4,0.2-7.7-0.4c-2.7-0.7-5.5-2.1-8.1-4.2c-2.6-2-4.5-4.4-6.3-6.7
        c-0.5-0.7-1.1-1.3-1.6-2c-4-4.8-8.3-10.4-12.4-15.9c-4.2-5.6-8.3-11-11.1-14.1c-1.2-1.3-4.7-1.9-5.9-2.1c-1.9-0.3-4.2-0.2-6.6,0.4
        c-2.8,0.7-5.4,2.1-8.3,3.6c-1.8,1-3.6,1.9-5.6,2.8c-5.6,2.4-11.3,4.6-16.9,6.8l-3.8,1.5c-2,0.8-4,1.6-6,2.4
        c-5.7,2.3-11.6,4.6-17.5,6.6c-9,3-17.9,5.5-26.3,7.8c-8,2.2-16.3,4.1-24.2,6c-8.2,1.9-16.6,3.9-24.8,6.2c-1.2,0.3-2.4,0.6-3.6,0.9
        c-3.6,0.9-7,1.8-10.2,3.2c-3.6,1.6-6.5,3.3-8.9,5.3c-1.9,1.5-4.2,3.6-5.5,6c-1.7,3-2.3,6.9-2.9,10.3c-0.5,2.8-0.5,5.6-0.5,8.7
        l0,2.1c-0.1,4.1-0.1,7.9,0.4,11.7c0.7,5.8,1.7,10.4,3.1,14.6c1.6,4.7,3.3,8.1,5.3,10.9c1.4,2,3.5,3.7,5.6,5.5
        c2.3,1.9,5,3.5,7.6,5.1l0.9,0.5c2.8,1.7,5.5,3.3,8.3,4.5c7.7,3.1,15.7,4.9,24.2,6.9c4.9,1.1,10,2.3,15,3.8
        c21.3,6.2,37.5,11.1,52.5,16c1.7,0.5,3.4,1,5.1,1.5c4.6,1.3,9.3,2.7,13.8,5.1c3.3,1.7,6,3.8,8,6c2.6,2.9,4.5,5.9,5.6,9.1
        c1.1,3.3,1.5,7,1.1,10.9c-0.3,2.9-1.2,5.6-2,8.1c-0.2,0.7-0.4,1.3-0.6,2c-0.7,2.2-1.6,4.4-2.5,6.4c-1.2,2.9-2.4,5.7-2.9,8.5
        c-0.4,2.8-0.4,5.7,0.2,8.3c0.7,3,1.9,5.7,3.5,8c0.5,0.7,1.5,1.5,2.5,2.2c7.2,5.2,15.6,9.9,25.7,14.4c2.2,1,4.5,2,6.7,2.9
        c10.7,4.6,21.7,9.4,30.9,16.9c3.2,2.6,5.8,5.8,7.3,9c1.6,3.4,2.3,7,2.1,10.4c-0.3,3.7-1.7,7.5-4.3,12
        c-6.9,11.5-13.3,21.4-21.8,31.9c-2.6,3.2-6,6-9.7,8.2c-3.2,1.8-6.8,3.1-10.5,3.7C623.8,422.8,621.5,423,619.1,423z M352.6,240.1
        c4.6,0,9.1,0.8,13.4,1.5l0.2,0c12.8,2.2,26.4,5.8,40.3,10.6c8.3,2.9,16.2,6.7,23.5,10.3c1.3,0.7,2.7,1.3,4.1,2
        c6,2.9,12.2,5.9,17.6,10.2c6.8,5.5,12.2,12.4,17.3,19.1l1.1,1.4c4.1,5.4,7.8,11.2,11.2,16.7c2.6,4.1,5.3,8.4,8.1,12.4
        c1.3,1.9,2.6,3.8,4,5.6c6.8,9.6,13.7,19.6,21.7,28.4c6.3,7,13.8,14,23.7,21.9c8,6.5,16.7,13.2,26.1,18.4c6,3.4,13,6.3,22.1,9.4
        c7.5,2.5,16.3,5.2,25.1,6.3c2.8,0.4,5.1,0.5,7.2,0.5c2,0,3.8-0.1,5.5-0.4c2.8-0.5,5.4-1.4,7.9-2.8c2.9-1.7,5.5-3.8,7.5-6.3
        c8.2-10.2,14.4-19.7,21.2-31c2-3.3,3-6,3.2-8.5c0.2-2-0.3-4.2-1.3-6.4c-1-2.2-2.8-4.3-5.1-6.2c-8.3-6.8-18.8-11.4-29-15.7
        c-2.3-1-4.6-2-6.8-3c-10.6-4.8-19.5-9.7-27.1-15.2c-1.5-1.1-3.1-2.3-4.3-4c-2.3-3.2-4-6.9-4.9-10.9c-0.8-3.5-0.9-7.4-0.3-11.3
        c0.6-3.8,2-7.1,3.4-10.4c0.8-2,1.6-3.8,2.2-5.7c0.2-0.7,0.5-1.4,0.7-2.2c0.7-2.2,1.4-4.3,1.6-6.4c0.3-2.8,0-5.4-0.7-7.6
        c-0.7-2-2-4.2-3.9-6.2c-1.5-1.6-3.4-3.1-5.9-4.4c-3.7-2-7.9-3.2-12.3-4.5c-1.7-0.5-3.5-1-5.3-1.6c-14.9-4.9-31-9.8-52.3-15.9
        c-4.8-1.4-9.8-2.5-14.6-3.7c-8.4-1.9-17.1-4-25.3-7.3c-3.4-1.4-6.5-3.2-9.5-5l-0.9-0.5c-2.8-1.7-5.8-3.5-8.5-5.7c-2.5-2-5-4.2-7-7
        c-2.5-3.4-4.5-7.5-6.3-13c-1.6-4.7-2.7-9.8-3.5-16.2c-0.5-4.3-0.5-8.6-0.4-12.8l0-2c0-3.2,0.1-6.6,0.6-10
        c0.7-3.8,1.5-8.6,3.8-12.8c2-3.6,5-6.3,7.4-8.3c3-2.4,6.5-4.5,10.7-6.4c3.8-1.7,7.6-2.7,11.4-3.6c1.2-0.3,2.3-0.6,3.4-0.9
        c8.3-2.3,16.9-4.3,25.1-6.3c7.9-1.9,16-3.8,23.9-5.9c8.3-2.3,17.1-4.7,25.9-7.7c5.7-2,11.5-4.3,17.1-6.5c2-0.8,4-1.6,6.1-2.4
        l3.8-1.5c5.5-2.1,11.2-4.4,16.6-6.7c1.6-0.7,3.3-1.6,5-2.5c3.1-1.7,6.4-3.4,10.1-4.3c3.5-0.9,6.8-1,9.9-0.5
        c3.6,0.6,7.7,1.6,10.4,4.6c3.1,3.4,7.3,8.9,11.6,14.7c4.1,5.4,8.2,11,12.1,15.5c0.6,0.7,1.2,1.4,1.8,2.2c1.6,2,3.2,3.9,5,5.3
        c1.8,1.4,3.6,2.3,5.3,2.8c1.3,0.3,2.8,0.4,4.6,0.2c2.1-0.3,3.9-0.8,5.4-1.7c1.6-0.9,3-2.1,4-3.5c1.5-2.1,2.4-3.9,2.5-5.5
        c0.3-2.6-0.9-5.6-1.9-7.9c-0.7-1.5-1.8-3-3-4.6c-0.4-0.4-0.7-0.9-1-1.4c-3-4-6.5-7.9-9.8-11.7c-1.1-1.3-2.3-2.6-3.4-3.9
        c-2.8-3.2-5.6-6.5-8.4-9.8c-13.8-16-28-32.6-41.2-46.5c-1.5-1.6-3.9-2.8-6.6-3.4c-0.7-0.1-1.4-0.2-2.2-0.2c-1.7,0-3.5,0.3-5.5,0.7
        c-2.8,0.5-5.6,1.6-8.5,2.7c-0.7,0.3-1.5,0.6-2.2,0.8c-2.3,0.9-4.6,2-7,3.1c-3.8,1.9-7.8,3.8-12.3,4.8c-2.8,0.6-5.2,0.7-7.5,0.4
        c-3-0.5-5.5-1.5-7.7-2.9c-1.5-1-2.5-2.2-3.4-3.2c-0.3-0.3-0.5-0.6-0.8-1c-1-1.1-1.9-2.2-2.7-3.3c-1.2-1.5-2.3-3-3.6-4
        c-2.9-2.3-5.2-3.5-7.5-4C534,8,533.5,8,533,8c-1.3,0-2.8,0.3-4.4,0.6c-8,1.6-15.6,4.8-23.6,8c-3.1,1.3-6.2,2.6-9.4,3.8
        c-3.9,1.5-13.3,5.2-26.2,10.2c-34.9,13.7-93.2,36.6-132,50.7c-6,2.2-12.2,4.2-18.2,6.1c-7.9,2.6-16.1,5.2-24,8.4
        c-5.8,2.3-10.7,4.5-15,6.8c-3.1,1.6-6,3.5-9.2,5.6c-6.5,4.2-12.8,8.7-19.7,13.7c-6.8,4.9-13.6,10.1-20.1,15.1l-5,3.8
        c-2.9,2.2-5.8,4.5-8.6,6.7c-5,4-10.2,8.1-15.7,11.9c-0.8,0.5-1.5,1-2.3,1.6c-4.1,2.8-8.3,5.8-13.2,7.8c-4,1.7-8.2,2.3-12.2,3
        c-3.4,0.6-6.7,1.1-9.7,2.2c-4.3,1.6-9.8,3.9-14.2,7.3c-3.4,2.7-6.2,6.4-9,10.3c-1.7,2.3-3,5-4.4,7.8c-1.6,3.2-3.2,6.5-5.5,9.5
        c-4,5.3-8.7,9.8-13.3,14.1c-2.1,2-4.2,4-6.2,6.1c-9.5,9.8-19,19.4-27.8,28.3c-3.6,3.6-7.3,7.1-10.9,10.5
        c-6.8,6.3-13.8,12.9-19.6,20.2c-6.2,7.8-11.4,16.8-15.7,24.6c-6.6,12-11.9,23.9-17.5,36.5c-2.5,5.7-5.2,11.6-8,17.7
        c-0.3,0.7-0.8,1.6-1.3,2.4c-1.4,2.5-3.4,6.3-3.2,8.8c0,0.5,0.3,0.9,0.4,1.1c0,0,0.1,0,0.1,0c0.7,0,1.8-0.4,2.8-0.7l0.2-0.1
        c3.4-1.1,6.6-3.3,9.9-5.6c1.5-1,3-2.1,4.6-3.1c41.3-25.8,72.5-46.4,101.2-66.7c6.6-4.6,12.6-9.3,18.9-14.2
        c4.3-3.3,8.8-6.8,13.6-10.4c2.8-2.1,5.4-3.2,8-3.4c2.2-0.2,4.5,0.4,6.2,1.7c2,1.4,3.5,3.6,4.2,6.1c0.7,2.8,0.3,5.3-0.1,7.6
        c-0.2,1-0.3,1.9-0.4,2.7c0,0.7-0.2,1.4-0.3,2c0,0.2-0.1,0.5-0.1,0.7c0.4,0.5,1.2,1.1,1.7,1.2c6-0.1,26.5-4.8,43-8.6
        c6-1.4,11.7-2.7,16.8-3.8l2.5-0.5c5.3-1.2,10.7-2.3,16-3.8l1.5-0.4c5.3-1.4,10.9-2.9,16-5c8.3-3.3,16.4-7.7,24.2-11.9
        c3-1.6,6.1-3.3,9.2-4.9c2.9-1.5,5.8-3.2,8.6-4.8c5-2.9,10.2-5.9,15.7-8.2c4.9-2,10.7-4.2,16.6-4.8
        C350.1,240.2,351.4,240.1,352.6,240.1z"/>
</svg>
